# xmcd
#
# Track frame offsets:
#	150
#	14399
#	31318
#	52929
#	75671
#	108242
#	124458
#	147856
#	178399
#	208729
#	222948
#	257394
#
# Disc length: 4797 seconds
#
# Revision: 1
# Processed by: cddbd v1.5.2PL0 Copyright (c) Steve Scherf et al.
# Submitted via: audiograbber 1.83.01
#
DISCID=a812bb0c
DTITLE=Grateful Dead - 72-10-28 Cleveland Public Hall, Cleveland OH
DYEAR=1900
DGENRE=
TTITLE0=Promised Land
TTITLE1=Friend Of The Devil
TTITLE2=Jack Straw
TTITLE3=China Cat Sunflower
TTITLE4=I Know You Rider
TTITLE5=Mexicali Blues
TTITLE6=Box Of Rain
TTITLE7=Me and Bobby McGee
TTITLE8=Candyman
TTITLE9=Me and My Uncle
TTITLE10=Sugaree
TTITLE11=Playing In The Band
EXTD=
EXTT0=
EXTT1=
EXTT2=
EXTT3=
EXTT4=
EXTT5=
EXTT6=
EXTT7=
EXTT8=
EXTT9=
EXTT10=
EXTT11=
PLAYORDER=
